<?xml version="1.0" encoding="UTF-8" standalone="no"?>
<!-- Created with Inkscape (http://www.inkscape.org/) -->

<svg
   xmlns:dc="http://purl.org/dc/elements/1.1/"
   xmlns:cc="http://creativecommons.org/ns#"
   xmlns:rdf="http://www.w3.org/1999/02/22-rdf-syntax-ns#"
   xmlns:svg="http://www.w3.org/2000/svg"
   xmlns="http://www.w3.org/2000/svg"
   xmlns:sodipodi="http://sodipodi.sourceforge.net/DTD/sodipodi-0.dtd"
   xmlns:inkscape="http://www.inkscape.org/namespaces/inkscape"
   width="210mm"
   height="297mm"
   id="svg2"
   version="1.1"
   inkscape:version="0.47 r22583"
   sodipodi:docname="lotus.svg">
  <defs
     id="defs4">
    <inkscape:perspective
       sodipodi:type="inkscape:persp3d"
       inkscape:vp_x="0 : 526.18109 : 1"
       inkscape:vp_y="0 : 1000 : 0"
       inkscape:vp_z="744.09448 : 526.18109 : 1"
       inkscape:persp3d-origin="372.04724 : 350.78739 : 1"
       id="perspective10" />
    <inkscape:perspective
       id="perspective2881"
       inkscape:persp3d-origin="0.5 : 0.33333333 : 1"
       inkscape:vp_z="1 : 0.5 : 1"
       inkscape:vp_y="0 : 1000 : 0"
       inkscape:vp_x="0 : 0.5 : 1"
       sodipodi:type="inkscape:persp3d" />
    <inkscape:perspective
       id="perspective3049"
       inkscape:persp3d-origin="0.5 : 0.33333333 : 1"
       inkscape:vp_z="1 : 0.5 : 1"
       inkscape:vp_y="0 : 1000 : 0"
       inkscape:vp_x="0 : 0.5 : 1"
       sodipodi:type="inkscape:persp3d" />
  </defs>
  <sodipodi:namedview
     id="base"
     pagecolor="#ffffff"
     bordercolor="#666666"
     borderopacity="1.0"
     inkscape:pageopacity="0.0"
     inkscape:pageshadow="2"
     inkscape:zoom="0.35"
     inkscape:cx="181.91654"
     inkscape:cy="561.28461"
     inkscape:document-units="px"
     inkscape:current-layer="layer2"
     showgrid="false"
     inkscape:window-width="1280"
     inkscape:window-height="742"
     inkscape:window-x="-4"
     inkscape:window-y="-3"
     inkscape:window-maximized="1" />
  <metadata
     id="metadata7">
    <rdf:RDF>
      <cc:Work
         rdf:about="">
        <dc:format>image/svg+xml</dc:format>
        <dc:type
           rdf:resource="http://purl.org/dc/dcmitype/StillImage" />
      </cc:Work>
    </rdf:RDF>
  </metadata>
  <g
     inkscape:groupmode="layer"
     id="layer2"
     inkscape:label="vektorisiert">
    <g
       transform="matrix(2.2982222,0,0,2.2982222,-419.54522,-696.39581)"
       id="g3033">
      <path
         style="fill:#a0a0a0"
         d="m 325.14285,754.78998 c -24.19894,-3.0727 -29.67566,-4.2029 -37.49704,-7.73805 -15.33398,-6.93075 -30.51648,-19.57629 -36.09759,-30.06577 -1.57323,-2.95682 -3.86034,-6.03121 -5.08249,-6.83199 -1.22214,-0.80078 -3.21562,-3.10656 -4.42996,-5.12397 -1.94491,-3.23112 -2.36461,-6.16937 -3.52361,-24.66802 -1.66468,-26.56979 -0.66157,-46.35463 2.97337,-58.64491 1.3816,-4.6714 2.7183,-12.32311 3.03181,-17.35509 0.3084,-4.95 1.45502,-19.8 2.54803,-33 1.09302,-13.2 2.30111,-33.32533 2.68467,-44.72295 0.62298,-18.5125 0.52607,-20.78868 -0.90853,-21.33919 -0.88324,-0.33893 -2.6269,0.0989 -3.87479,0.97295 -5.27512,3.69484 -13.82387,-0.36529 -13.82387,-6.56549 0,-3.1131 4.35905,-9.30826 9.39006,-13.34532 9.1594,-7.34982 9.90018,-8.32833 9.31035,-12.29827 -0.73512,-4.94784 -4.39633,-26.73881 -6.16644,-36.70173 -0.79155,-4.45512 -1.70638,-18.8562 -2.06458,-32.5 -0.54357,-20.7044 -0.39123,-25.58446 0.98333,-31.5 2.10512,-9.0596 8.28543,-19.5716 13.29128,-22.60697 2.0658,-1.25262 6.46775,-5.00349 9.7821,-8.33526 9.88862,-9.94057 14.78036,-14.15057 20.52647,-17.66581 2.99609,-1.83287 6.80934,-4.24588 8.4739,-5.36223 1.66455,-1.11635 6.16455,-2.9893 10,-4.1621 18.97809,-5.80314 40.40785,-7.67477 56.97353,-4.97596 27.04095,4.4054 25.78907,4.02673 38,11.49429 10.68909,6.53688 13.20509,8.46936 23.96734,18.40877 18.03975,16.66049 22.91281,22.58778 24.44537,29.73386 1.71977,8.01902 1.43345,61.63661 -0.36706,68.73651 -1.8748,7.39283 -6.54918,33.97929 -6.54658,37.2349 10e-4,1.84346 2.0645,4.38635 7.8557,9.68294 4.31954,3.95062 8.61084,8.77848 9.53622,10.72858 1.5748,3.31864 1.57519,3.7551 0.006,6.81706 -0.92196,1.79928 -2.176,3.60203 -2.78675,4.00611 -1.90218,1.25848 -6.38842,0.83884 -10.13564,-0.94808 -3.1266,-1.49098 -3.72273,-1.52343 -4.59221,-0.25 -1.47515,2.16046 -0.4977,21.37456 3.61001,70.96339 0.79728,9.625 1.71888,21.325 2.04798,26 0.3291,4.675 1.69036,14.125 3.02501,21 2.10083,10.82169 2.42412,15.31956 2.40782,33.5 -0.0256,28.60252 -1.33358,44.72861 -3.97438,49.00152 -1.11886,1.81035 -3.1495,4.02226 -4.51255,4.91536 -1.36305,0.8931 -3.8047,4.25148 -5.42591,7.46306 -1.95055,3.86402 -4.74264,7.29832 -8.25412,10.15263 -2.91856,2.37236 -6.43148,5.36994 -7.80648,6.6613 -6.11133,5.73956 -20.635,13.44498 -28.5,15.12045 -20.93587,4.45993 -51.37566,6.28787 -68.5,4.11348 z m 46,-14.4104 c 18.09882,-1.93195 26.21065,-3.82478 34.14709,-7.96794 13.17989,-6.88046 17.35739,-10.66938 22.10569,-20.04946 1.39208,-2.75 3.52576,-5.89894 4.74151,-6.99764 5.14681,-4.65127 5.33006,-5.88217 5.80641,-39.00236 0.36742,-25.54617 0.17817,-32.05558 -1.07572,-37 -1.84111,-7.25996 -3.40381,-19.80445 -4.51713,-36.26081 -0.45621,-6.74345 -1.32497,-12.75631 -1.93058,-13.36192 -0.80148,-0.80148 -2.60192,-0.10492 -6.61642,2.55975 -3.03342,2.01347 -6.8338,4.03899 -8.4453,4.50116 -1.61149,0.46217 -13.23174,0.45154 -25.82277,-0.0236 -12.59103,-0.4752 -41.11778,-0.56535 -63.39278,-0.20038 -22.275,0.36497 -42.60385,0.64712 -45.17522,0.62699 -5.28729,-0.0414 -9.89032,-1.64708 -14.41917,-5.02986 -6.11417,-4.56693 -6.98816,-2.82903 -7.95245,15.81304 -0.50118,9.68916 -1.49842,16.54379 -3.61828,24.87069 -2.67016,10.48854 -2.94429,13.15917 -3.13064,30.5 -0.11233,10.45272 0.17862,25.17868 0.64657,32.72435 l 0.8508,13.71941 4.49486,4.78059 c 2.47217,2.62933 5.5278,7.03059 6.79029,9.78059 3.50161,7.62731 8.46982,11.78506 22.04537,18.44913 15.7217,7.7176 52.33579,10.9982 84.46787,7.56827 z m -19,-167.47794 c 27.225,0.16852 52.52211,0.34108 56.21579,0.38347 10.61709,0.12184 10.13996,1.90708 8.39091,-31.39536 -0.89596,-17.05932 -1.91885,-28.73972 -2.57423,-29.3951 -0.78336,-0.78336 -1.56927,-0.74016 -2.80999,0.15443 -7.81544,5.6351 -6.90619,5.41818 -19.22248,4.58584 -14.76089,-0.99754 -80.25652,-0.93433 -94.09561,0.0908 -11.28468,0.83592 -12.6397,0.4893 -18.58036,-4.75294 -1.19679,-1.05608 -2.59127,-1.66348 -3.09884,-1.34978 -0.50758,0.3137 -1.18865,8.57335 -1.51347,18.35477 -0.32483,9.78142 -1.14586,22.35684 -1.82451,27.94537 -1.10286,9.08184 -1.05881,10.4282 0.41481,12.67722 2.157,3.292 4.00132,3.59884 17.69798,2.94437 6.325,-0.30222 33.775,-0.41162 61,-0.2431 z M 402.87454,492.364 c 1.22743,-1.41392 3.16871,-5.65572 4.31396,-9.42621 1.84405,-6.07111 1.95121,-7.57825 0.93668,-13.17305 -1.37653,-7.59113 -2.69076,-10.28863 -8.003,-16.42645 -4.91142,-5.67469 -11.91038,-10.60325 -21.3829,-15.05749 -6.14945,-2.89163 -8.83122,-3.49209 -20.09643,-4.49967 -26.43438,-2.36433 -42.13268,0.37093 -55.80645,9.72367 -14.89907,10.19083 -22.8551,22.86626 -21.33118,33.9845 0.67402,4.91754 7.02191,16.20933 9.66179,17.18665 1.01948,0.37743 26.06861,0.59006 55.66472,0.47253 l 53.81112,-0.2137 2.23169,-2.57078 z M 264.53102,453.51584 c 3.04232,-7.96621 24.53677,-27.95179 33.44079,-31.09331 2.0694,-0.73013 5.99196,-2.48896 8.7168,-3.90852 9.54235,-4.97127 30.6932,-8.3696 44.95424,-7.22283 17.80907,1.43207 23.30793,2.86772 37.51331,9.79402 7.41768,3.61673 15.47592,8.30862 17.90719,10.42643 11.03919,9.61587 12.89897,11.62166 16.52563,17.82296 6.13423,10.48905 6.35344,10.35009 9.42723,-5.97602 1.86364,-9.89848 2.12362,-14.8633 2.10219,-40.14588 -0.0135,-15.8974 -0.48105,-30.83141 -1.04145,-33.26257 -0.68247,-2.96078 -2.69786,-6.3523 -6.12702,-10.31063 -6.07684,-7.01458 -20.68509,-19.60048 -26.30708,-22.66515 -2.2,-1.19926 -6.52206,-3.7219 -9.60458,-5.60586 -4.38792,-2.68178 -8.07834,-3.88065 -17,-5.52261 -14.43504,-2.65666 -40.00087,-3.70566 -48.39542,-1.98574 -3.3,0.67612 -8.475,1.59282 -11.5,2.03711 -7.61706,1.11873 -16.8313,4.57694 -21,7.88154 -1.925,1.52598 -5.075,3.57727 -7,4.55843 -3.18783,1.62481 -5.8202,3.80286 -17.61401,14.574 -11.90668,10.87423 -14.34902,17.12325 -14.24629,36.45097 0.15975,30.05609 2.46623,58.99867 5.35926,67.25 0.8279,2.36127 2.23177,1.24359 3.88921,-3.09634 z"
         id="path3039" />
      <path
         style="fill:#545454"
         d="m 322.67709,752.2534 c -23.31426,-2.41828 -33.03623,-5.26966 -46.6195,-13.67315 -6.66076,-4.12077 -19.55251,-17.05209 -22.48178,-22.55079 -1.56248,-2.93299 -4.03353,-6.33629 -5.49125,-7.56287 -5.5275,-4.65109 -5.83941,-5.87653 -7.29648,-28.66681 -1.68913,-26.41986 -0.86454,-43.6704 2.67597,-55.9818 2.56332,-8.9134 2.77978,-10.80225 5.15188,-44.9558 2.85213,-41.06486 3.53309,-53.56169 3.53001,-64.78138 -0.004,-13.1056 -0.63589,-13.96998 -7.48301,-10.22959 -2.96717,1.62088 -5.01371,2.10389 -6.90405,1.62945 -2.99158,-0.75084 -5.04938,-4.75574 -4.19425,-8.16287 0.52287,-2.08326 7.90261,-9.41646 14.65618,-14.56374 4.24971,-3.23895 4.27186,-4.64805 0.4462,-28.39187 -3.86158,-23.96672 -4.19945,-27.43444 -4.96906,-51.00049 -0.55422,-16.97067 -0.39362,-22.40195 0.83697,-28.30388 1.84654,-8.85603 6.37421,-17.09497 11.79082,-21.45554 2.21362,-1.78205 7.01554,-6.16869 10.67093,-9.7481 12.85736,-12.59007 21.7781,-19.1992 33.14618,-24.55709 10.68466,-5.03578 36.35721,-9.09128 50.42767,-7.96606 10.36904,0.82921 31.65761,4.29787 35.83989,5.83959 9.36235,3.45124 26.84062,15.83683 38.34266,27.17069 3.36062,3.31149 8.01824,7.82088 10.35026,10.02088 11.52075,10.86852 12.01396,12.87877 12.02207,49 0.004,16.28914 -0.42749,29.56193 -1.03085,31.7345 -1.73842,6.25959 -6.9503,37.02038 -6.95102,41.02529 -4.9e-4,2.71269 0.62418,4.24443 2.243,5.5 1.23403,0.95711 5.28403,4.70012 9,8.3178 5.47516,5.33032 6.75632,7.1656 6.75632,9.67857 0,3.56516 -2.22454,6.24384 -5.18527,6.24384 -1.12333,0 -3.81411,-0.99574 -5.9795,-2.21276 -6.5777,-3.69687 -7.33523,-2.42414 -7.33523,12.32396 0,22.73961 5.95561,94.6629 8.80953,106.3888 2.03512,8.36172 2.18474,11.30488 2.10961,41.5 -0.0445,17.875 -0.40576,34.20561 -0.80286,36.29025 -0.51102,2.68265 -2.04498,5.02043 -5.24928,8 -2.48999,2.31536 -5.79521,6.69331 -7.34492,9.72876 -1.88212,3.68654 -4.68976,7.00683 -8.45601,10 -3.10109,2.46455 -6.23802,5.38099 -6.97096,6.48099 -2.19328,3.2917 -23.20674,13.40461 -31.2374,15.03327 -9.13544,1.85272 -37.74792,4.49716 -46.85771,4.33072 -3.85,-0.0703 -12.83459,-0.73309 -19.96576,-1.47277 z m 47.87256,-9.42716 c 30.20032,-2.86383 50.22257,-12.50097 58.09855,-27.96406 0.98048,-1.925 3.84761,-6.13631 6.3714,-9.35847 l 4.58872,-5.85846 0.36363,-33.64154 c 0.34445,-31.86607 0.25059,-34.06374 -1.77838,-41.64153 -1.34467,-5.02203 -2.49055,-13.58369 -3.07831,-23 -1.72907,-27.70123 -2.19674,-28.88298 -9.18876,-23.21905 -8.19635,6.6395 -3.3826,6.27319 -80.78365,6.14741 -78.17602,-0.12704 -73.36181,0.27507 -80.7592,-6.7454 -5.36044,-5.0873 -6.19022,-3.19719 -7.88453,17.95958 -0.92577,11.56012 -2.33729,21.48311 -4.00266,28.13876 -2.31667,9.25857 -2.58594,12.3423 -2.70688,31 -0.0739,11.39529 0.24701,26.47869 0.71306,33.51868 l 0.84736,12.79999 4.42909,4.70001 c 2.436,2.58501 5.60016,6.95002 7.03145,9.70002 3.72917,7.16497 5.2461,8.8429 12.45841,13.78064 7.43654,5.09125 16.79852,9.04882 25.3739,10.72624 19.24631,3.76475 48.38998,4.99757 69.9068,2.95718 z m -25.4068,-168.13159 c 20.625,0.0171 44.35004,0.34653 52.72231,0.73209 17.73323,0.81665 20.97463,0.0876 22.04266,-4.95813 0.36165,-1.70854 0.57164,-3.41646 0.46664,-3.79539 -0.105,-0.37892 -0.87736,-13.3631 -1.71635,-28.85372 -0.83899,-15.49063 -1.77471,-28.5681 -2.07937,-29.06105 -1.08229,-1.75118 -3.48527,-0.84644 -7.57942,2.85373 -3.91407,3.53742 -4.49529,3.73987 -10.25288,3.57134 -44.07298,-1.2901 -84.60693,-1.4161 -95.69966,-0.29748 -6.92784,0.69862 -13.75272,0.97992 -15.16639,0.62511 -1.41368,-0.35481 -4.44466,-2.44597 -6.73553,-4.64704 -2.29086,-2.20106 -4.52339,-4.00193 -4.96117,-4.00193 -2.36814,0 -3.02577,3.86869 -3.49709,20.57259 -0.27821,9.86007 -0.94964,21.07741 -1.49207,24.92741 -1.36726,9.70434 -1.28545,17.82473 0.19832,19.68455 2.86469,3.59072 4.8892,3.90832 20.75,3.25516 8.525,-0.35106 32.375,-0.62432 53,-0.60724 z m 57.94589,-79.63488 c 1.45709,-1.08415 3.74591,-4.86344 5.32887,-8.79899 2.29223,-5.69894 2.69109,-7.94199 2.29365,-12.8986 -0.99112,-12.3605 -5.66181,-20.06446 -17.80913,-29.37488 -13.14429,-10.07454 -22.82844,-12.54524 -49.25928,-12.5674 -17.29558,-0.0145 -19.6728,0.19833 -26.5,2.37252 -18.43508,5.87085 -35.8817,23.12641 -37.50257,37.09187 -0.86456,7.44917 -0.0937,10.85342 4.06437,17.94803 3.68113,6.28088 4.98863,7.63877 7.86902,8.17225 1.06195,0.19669 26.01259,0.26716 55.44589,0.15661 50.84349,-0.19097 53.64258,-0.29588 56.06918,-2.10141 z M 265.22166,457.65144 c 4.05015,-10.82998 22.85815,-29.03445 34.90143,-33.78147 2.79652,-1.10229 6.0825,-2.64162 7.30217,-3.42073 12.54179,-8.0116 57.1837,-9.0017 71.71093,-1.59046 2.3717,1.20995 5.9622,2.78207 7.9789,3.49361 5.77552,2.03772 17.87873,9.96871 25.15605,16.48426 5.42388,4.85612 7.55124,7.72583 11.48501,15.49282 2.65544,5.24299 5.20172,9.53271 5.65841,9.53271 1.4889,0 3.55021,-6.39847 4.68175,-14.5325 0.6096,-4.38213 1.53372,-9.7675 2.05359,-11.9675 1.33695,-5.65762 1.25165,-61.19527 -0.10368,-67.51498 -2.00452,-9.34674 -17.38593,-24.66686 -37.22662,-37.07827 -9.4921,-5.93782 -10.31803,-6.24497 -24.5,-9.11136 -13.76121,-2.78134 -15.7996,-2.94102 -32.67675,-2.55971 -10.39905,0.23494 -20.11138,0.96627 -23,1.73189 -2.75,0.72887 -8.48835,2.20888 -12.7519,3.28889 -4.76905,1.20807 -9.38652,3.16508 -12,5.08593 -2.33645,1.71725 -6.35379,4.48022 -8.92741,6.13994 -5.6076,3.61633 -20.82069,16.37869 -20.82069,17.46662 0,0.42321 -1.84705,2.86783 -4.10456,5.4325 -5.74785,6.52989 -6.9417,11.37012 -6.93131,28.10153 0.0128,20.65107 1.62822,48.61601 3.46689,60.01702 2.77803,17.22567 4.84816,19.44937 8.64779,9.28926 z"
         id="path3037" />
      <path
         style="fill:#393939"
         d="m 326.64285,749.7114 c -16.4993,-1.09475 -27.29562,-3.21767 -35.38601,-6.9581 -7.14194,-3.30193 -7.70966,-4.72897 -0.99727,-2.50676 13.12927,4.34659 31.98259,6.66347 54.38328,6.68317 20.08668,0.0177 33.84035,-1.22559 46.5,-4.2033 13.33305,-3.13611 13.87707,-3.1305 7.5,0.0773 -3.3,1.66 -9.15,3.68703 -13,4.50452 -6.24739,1.32654 -37.63732,3.77859 -43.65039,3.40979 -1.29228,-0.0793 -8.19961,-0.53226 -15.34961,-1.00667 z m -68.41347,-32.68753 c -0.68671,-1.28314 -1.05124,-2.53032 -0.81005,-2.7715 0.78506,-0.78506 2.9247,2.50627 2.48561,3.82352 -0.27017,0.81053 -0.88552,0.42417 -1.67556,-1.05202 z m 173.91347,-1.04366 c 0,-0.55 0.45,-1.27811 1,-1.61803 0.55,-0.33992 1,-0.16803 1,0.38197 0,0.55 -0.45,1.27811 -1,1.61803 -0.55,0.33992 -1,0.16803 -1,-0.38197 z m 9.4874,-13.86803 c 1.14371,-2.85368 1.41391,-9.97322 1.58711,-41.81943 0.16224,-29.83053 0.13026,-30.34525 -2.39664,-38.58222 -2.61338,-8.51884 -3.03375,-12.95847 -5.76161,-60.84835 -0.48559,-8.525 -1.31541,-19.325 -1.84404,-24 -0.52863,-4.675 -1.41581,-15.27274 -1.97153,-23.55054 -0.55571,-8.2778 -1.30385,-15.8153 -1.66252,-16.75 -0.97028,-2.5285 -2.31904,-2.05923 -3.0194,1.05054 -0.34063,1.5125 -1.05767,4.49738 -1.59343,6.63307 -0.91356,3.64177 0.36617,49.01579 1.70965,60.61693 0.39118,3.3779 0.0537,5.1958 -1.35341,7.29038 l -1.87454,2.79039 -0.64904,-10.29039 c -0.35698,-5.65971 -0.94124,-21.31538 -1.29837,-34.79038 -0.35713,-13.475 -1.02301,-25.5125 -1.47973,-26.75 -1.44283,-3.90941 -4.76785,-2.75699 -11.14593,3.86308 l -5.88962,6.11309 -9.67217,-0.86309 c -12.54492,-1.11943 -82.85371,-1.11922 -95.17218,2.8e-4 l -9.5,0.86336 -4.61452,-4.36336 c -2.53799,-2.39985 -4.78799,-4.91567 -5,-5.59072 -0.21201,-0.67504 -1.80648,-1.51049 -3.54327,-1.85655 -2.49586,-0.49731 -3.37418,-0.22486 -4.19014,1.29976 -0.56779,1.06093 -1.25609,10.67138 -1.52955,21.35656 -0.27347,10.68517 -1.15262,24.82759 -1.95368,31.42759 -0.80106,6.6 -1.22818,13.4625 -0.94916,15.25 0.66451,4.257 -0.32239,4.13661 -2.16092,-0.26361 -1.18659,-2.83991 -1.28004,-5.09284 -0.48739,-11.75 1.5045,-12.63574 1.03125,-60.1433 -0.62584,-62.82453 -1.39678,-2.26003 -2.30067,2.05451 -2.37524,11.3377 -0.0387,4.81225 -0.73293,12.68725 -1.54282,17.5 -0.8099,4.81274 -1.93529,16.79446 -2.50088,26.62603 -0.56559,9.83158 -1.44461,20.63158 -1.95339,24 -0.50878,3.36843 -1.46055,13.32441 -2.11506,22.12441 -0.66438,8.9328 -2.07,19.31275 -3.18229,23.5 -2.45583,9.24505 -3.32689,36.4825 -2.03072,63.5 0.47495,9.9 0.71588,18.19821 0.5354,18.44048 -0.18048,0.24226 -0.98252,-0.2139 -1.7823,-1.01368 -1.99127,-1.99127 -3.89764,-35.74002 -3.08935,-54.69149 0.47374,-11.10762 1.1792,-16.19798 3.18753,-23 2.74698,-9.30374 3.39248,-15.87112 5.42902,-55.23531 0.64023,-12.375 1.69747,-29.25 2.34943,-37.5 1.41668,-17.92697 1.32691,-28.32022 -0.27039,-31.3048 -1.62578,-3.0378 -6.15227,-2.8673 -10.00786,0.37696 -3.92441,3.30217 -7.47574,2.97269 -7.90446,-0.73337 -0.23969,-2.07195 0.50618,-3.28978 3.36854,-5.5 2.02202,-1.56133 6.18391,-5.20657 9.24866,-8.10053 5.31931,-5.02288 5.56892,-5.4827 5.49883,-10.12934 -0.0404,-2.67719 -0.56922,-6.3844 -1.17517,-8.23827 -0.60595,-1.85386 -1.50242,-8.80744 -1.99215,-15.45241 -0.48973,-6.64497 -1.44985,-13.12708 -2.13361,-14.40468 -1.29654,-2.42262 -1.93082,-16.51594 -2.06187,-45.81355 -0.0564,-12.60266 0.30003,-17.4228 1.57122,-21.25 1.85486,-5.58446 3.02663,-6.63284 1.90009,-1.70001 -0.40823,1.7875 -0.66261,16.81543 -0.5653,33.3954 0.15509,26.42508 0.42201,31.10364 2.16277,37.90996 1.09221,4.27051 1.98584,9.23816 1.98584,11.03923 0,8.13789 7.62266,36.18275 9.36184,34.44357 0.56737,-0.56737 1.32047,-5.93151 1.67357,-11.92033 0.50931,-8.63822 1.14037,-11.8849 3.05329,-15.70839 3.2617,-6.51941 4.9113,-6.84423 4.9113,-0.96709 l 0,4.60901 2.93592,-1.51822 2.93592,-1.51823 -0.68592,3.74255 c -0.93409,5.0966 -0.86709,20.09262 0.10535,23.58106 0.76728,2.75248 0.69908,2.81827 -2.25,2.17054 -1.6727,-0.36738 -3.04127,-0.38487 -3.04127,-0.0389 0,1.29233 2.92417,6.22198 4.43406,7.47508 1.33047,1.10419 1.56594,1.00552 1.56594,-0.65617 0,-3.48332 1.30045,-3.40162 5.113,0.32124 l 3.739,3.65102 57.18416,-0.0177 c 55.14538,-0.0171 57.27829,-0.0873 59.824,-1.97093 3.22471,-2.386 6.57433,-8.94394 8.26564,-16.18261 1.23631,-5.29131 0.49911,-11.53925 -2.72443,-23.09015 l -0.69768,-2.5 2.39816,2.04745 c 6.34328,5.41566 6.26746,5.4096 5.66553,0.45255 -0.30054,-2.475 -0.87125,-5.2926 -1.26824,-6.26134 -0.52616,-1.28389 -0.33553,-1.61311 0.70324,-1.21449 3.17394,1.21795 6.95756,12.594 8.22015,24.71517 0.67254,6.45663 1.51502,12.03154 1.87216,12.38869 1.65113,1.65112 7.36407,-19.67634 8.74001,-32.62803 0.61351,-5.775 1.72516,-13.2 2.47033,-16.5 0.74517,-3.3 1.38902,-11.625 1.43078,-18.5 0.0418,-6.875 0.34329,-18.125 0.67007,-25 0.53479,-11.25127 -0.0644,-18.54025 -2.28113,-27.75 -0.80183,-3.3313 1.36571,-2.74926 3.23689,0.86919 2.10883,4.07803 3.46805,23.69336 2.41703,34.88081 -0.4392,4.675 -0.57886,10.3 -0.31036,12.5 0.64153,5.25641 -0.8783,18.09118 -4.61816,39 -4.84344,27.0787 -4.73485,24.95165 -1.42517,27.91539 3.03159,2.71472 5.16687,4.80198 8.90739,8.70708 1.25253,1.30764 3.67014,3.5632 5.37248,5.01236 3.50292,2.98195 3.76266,4.0548 1.52372,6.29374 -2.14454,2.14454 -2.85356,2.00885 -6.64377,-1.27143 -4.4882,-3.88437 -7.44914,-4.4928 -9.90632,-2.03562 -1.83662,1.83662 -1.94332,3.05913 -1.54266,17.67578 0.51034,18.61796 1.86152,40.62044 4.09624,66.7027 2.61399,30.50879 3.29526,35.75366 5.49068,42.27067 1.91234,5.67669 2.07235,8.37188 2.01544,33.94778 -0.0697,31.30737 -0.80235,41.951 -2.98275,43.33026 -2.26459,1.43252 -3.23625,1.11807 -2.46803,-0.79871 z m -27.0441,-207.47251 c 2.60417,-3.71798 1.83567,-5.66642 -0.9749,-2.47173 -1.35762,1.54317 -2.4684,3.23067 -2.4684,3.75 0,1.68545 1.84793,0.99943 3.4433,-1.27827 z m -135.9433,87.30622 c -6.09289,-2.18409 -8.5,-3.37822 -8.5,-4.21672 0,-0.55832 0.70764,-0.58467 1.75,-0.0651 0.9625,0.47971 34.7125,0.83304 75,0.78518 40.2875,-0.0479 73.25,0.004 73.25,0.11606 0,0.33411 -6.34117,3.09265 -8.56604,3.72641 -1.13633,0.32368 -4.51133,0.11632 -7.5,-0.4608 -6.9239,-1.33703 -111.81148,-1.31014 -117.43396,0.0301 -4.52715,1.07915 -5.2063,1.08635 -8,0.0849 z m 21.75,-146.76698 c 2.62472,-2.961 2.1977,-3.3379 -3,-2.64791 l -4.75,0.63055 1.97752,-2.22983 c 2.39382,-2.69925 15.87872,-9.21788 23.70454,-11.45883 3.12513,-0.89489 10.43172,-2.12805 16.23685,-2.74034 22.72381,-2.39679 47.15394,3.04733 60.08109,13.38872 l 5,3.99988 -4.84117,-0.70443 c -4.67902,-0.68083 -4.81751,-0.62986 -4.1346,1.52179 0.59375,1.87074 0.41406,2.11397 -1.12534,1.52324 -17.81141,-6.83487 -32.16222,-9.12848 -51.64527,-8.25417 -12.2899,0.55152 -14.83278,0.99537 -24,4.18912 -5.63949,1.96473 -11.37862,3.83868 -12.75362,4.16433 -2.42202,0.57363 -2.44542,0.53052 -0.75,-1.38212 z m 3.14427,-113.77202 c 14.81052,-9.10044 62.47156,-9.38955 83.19913,-0.50467 2.57932,1.10562 4.4438,2.25609 4.14329,2.5566 -0.3005,0.30051 -6.9772,-0.86221 -14.83711,-2.58381 -12.92525,-2.83109 -15.87253,-3.12419 -30.84516,-3.06747 -18.07305,0.0685 -19.22464,0.19763 -32.81692,3.68093 -11.76425,3.01484 -13.85115,2.99558 -8.84323,-0.0816 z"
         id="path3035" />
    </g>
  </g>
</svg>
